<mxfile host="app.diagrams.net" modified="2023-11-01T16:50:01.057Z" agent="Mozilla/5.0 (Macintosh; Intel Mac OS X 10_15_7) AppleWebKit/537.36 (KHTML, like Gecko) Chrome/118.0.0.0 Safari/537.36" etag="XRc9ZZQNydOZyycItyDl" version="22.0.8" type="github">
  <diagram name="Page-1" id="7x2yft6GMGwAYUUNd7U7">
    <mxGraphModel dx="1242" dy="781" grid="1" gridSize="10" guides="1" tooltips="1" connect="1" arrows="1" fold="1" page="1" pageScale="1" pageWidth="850" pageHeight="1100" math="0" shadow="0">
      <root>
        <mxCell id="0" />
        <mxCell id="1" parent="0" />
        <mxCell id="L9rHaHsLYtnHYoEUxmg6-1" value="WebView A" style="rounded=0;whiteSpace=wrap;html=1;" vertex="1" parent="1">
          <mxGeometry x="110" y="270" width="120" height="220" as="geometry" />
        </mxCell>
        <mxCell id="L9rHaHsLYtnHYoEUxmg6-2" value="WebView B" style="rounded=0;whiteSpace=wrap;html=1;" vertex="1" parent="1">
          <mxGeometry x="350" y="270" width="120" height="220" as="geometry" />
        </mxCell>
      </root>
    </mxGraphModel>
  </diagram>
</mxfile>
